<svg width="24" height="24" viewBox="0 0 24 24" fill="none" xmlns="http://www.w3.org/2000/svg">
<path d="M1.3335 8.00001V4.00001C1.3335 3.29277 1.61445 2.61449 2.11454 2.11439C2.61464 1.61429 3.29292 1.33334 4.00016 1.33334H8.00016M22.6668 16V20C22.6668 20.7073 22.3859 21.3855 21.8858 21.8856C21.3857 22.3857 20.7074 22.6667 20.0002 22.6667H16.0002M16.0002 1.33334H20.0002C20.7074 1.33334 21.3857 1.61429 21.8858 2.11439C22.3859 2.61449 22.6668 3.29277 22.6668 4.00001V8.00001M8.00016 22.6667H4.00016C3.29292 22.6667 2.61464 22.3857 2.11454 21.8856C1.61445 21.3855 1.3335 20.7073 1.3335 20V16" stroke="white" stroke-width="2" stroke-linecap="round" stroke-linejoin="round"/>
</svg>
